<svg width="32" height="32" viewBox="0 0 32 32" fill="none" xmlns="http://www.w3.org/2000/svg">
  <!-- Background circle with gradient -->
  <circle cx="16" cy="16" r="16" fill="url(#gradient)"/>
  
  <!-- Letter B -->
  <path d="M10 8h6.5c1.933 0 3.5 1.567 3.5 3.5 0 1.2-.6 2.267-1.533 2.9C19.4 14.733 20 15.8 20 17c0 1.933-1.567 3.5-3.5 3.5H10V8zm3 2v4h3.5c.827 0 1.5-.673 1.5-1.5S17.327 10 16.5 10H13zm0 6v4h3.5c.827 0 1.5-.673 1.5-1.5S17.327 16 16.5 16H13z" fill="white"/>
  
  <!-- Gradient definition -->
  <defs>
    <linearGradient id="gradient" x1="0%" y1="0%" x2="100%" y2="100%">
      <stop offset="0%" style="stop-color:#22c55e;stop-opacity:1" />
      <stop offset="100%" style="stop-color:#16a34a;stop-opacity:1" />
    </linearGradient>
  </defs>
</svg>